<?xml version="1.0" encoding="UTF-8"?>
<svg width="126.14px" height="50px" version="1.1" viewBox="0 0 1.766 .7" xmlns="http://www.w3.org/2000/svg"><g fill="#646464"><path d="m.622.7v-.483l-.249.354-.249-.355v.484h-.124l.002-.7h.122l.249.356.249-.356h.124v.7z"/><path d="m1.233.2v.5h-.112v-.059q-.033.033-.06.046t-.075.013q-.085 0-.133-.06-.047-.061-.047-.154v-.286h.112v.28q0 .044.029.074.029.029.074.029.027 0 .05-.016t.036-.041q.014-.025.014-.052v-.274z"/><path d="m1.766.2-.169.249.169.251-.136-.001-.1-.148-.1.148-.137.001.168-.251-.168-.249h.137l.1.149.1-.149z"/></g></svg>
